<svg xmlns="http://www.w3.org/2000/svg" width="400" height="488.5" display="block"><g fill-rule="evenodd"><path fill="#fff" d="M116.1 361.8c-3 3.4-7.1 11.9-8.6 17.7-2.3 9.4 1.5 23 7.8 28.4 8.2 6.9 19.9 11.5 25.2 9.9l.6-.2-1-.8a13 13 0 0 0-2.8-1.6c-16.4-7-25.4-20.4-22.6-33.8a44 44 0 0 1 7.5-15.1l.9-1.3-.7-1.5-.6-1.6-2 .1c-1.4 0-2.2 0-2.7-.3-.6-.3-.7-.3-1 0m144 21.2c-12.3 4.5-23.8 22.9-20.7 33l.2 1 1-2.6c4.3-10.7 9.6-18.8 20.1-30.9.8-1 .7-1-.6-.5"/><path fill="#1b130f" d="M215.8.3c-.3.5-.2 2.5.5 6.1 3.7 19.7-6.5 37.1-29.4 50.2l-2.3 1.3v-.7l-.4-2.5c-3.3-22.2-12.6-37.5-27.2-44.5-6.3-3-15.2-4.9-16.8-3.5l-.6.5.9.8c.5.5 3 1.8 5.4 3 21 10.2 30.3 23.3 31.4 43.8.2 3.4.3 3.3-1.7 1.5l-2.5-2.3a63.3 63.3 0 0 0-48-17.4c-9.2 1-22.6 6.2-29.6 11.3-3.4 2.5-.6 3.8 3.8 1.7a63.2 63.2 0 0 1 62.2 3c4 2.5 9.3 6.4 9 6.5l-4.5.4c-46.8 4-90 15.8-130 35.2-4.6 2.2-6.7 3.6-7.2 4.6-.7 1.6 1.2 1.4 7.7-.8a798.4 798.4 0 0 1 57-17.6l-2 2.3a58 58 0 0 0-11.2 19c-.8 2.3-.8 2.3-1.6 2.5-19.5 3-28.6 14-30.5 37.2-1.9 22.6 4.4 42.4 16.4 52l2.2 1.8a41 41 0 0 0 19.3 6.5l3 .2 8 5.6 8 5.6-4.8.2a62.6 62.6 0 0 0-57 36.4c-1.4 2.7-2 3.6-2.2 3.5-.9-.3-8.5-.4-11.4-.2a36 36 0 0 0-15.3 4.5 28.6 28.6 0 0 0-11.8 15.8c-5.2 15.8-2 30.4 8 37a45.9 45.9 0 0 0 19 3.5c1.3 0 2 .1 2 .2-.3.4.2 2.8.8 4 1.1 2.3 4 4.7 8.6 6.9l1.5.7 2.1-.3c4-.6 6.3-2 7.1-4.2.3-.7.4-.8 1-.6 12 2.6 19.4-1 23.6-11.5a68.7 68.7 0 0 0 3.3-24l-.1-2.5 2.3-.5a44 44 0 0 0 23.7-14.1l1.7-2 1.8-.4c1.8-.5 6-.6 7.2-.3.5.2.7.5 1.7 3.6 1.3 4.2 1.1 3.8 3 4.7 1.6.8 1.4.9 4.8-1.3l1.9-1.2v1.4c0 4.4-1.2 7.7-5.3 14.6-1.6 2.7-2 3.3-2.5 3.3-1 0-5.9 7.2-8.2 12a31.6 31.6 0 0 0 1.8 32c1.4 2.1 1.5 2-2.2 2.6-20.5 3-38.7 16.5-54.6 40.2-13.5 20.1-17 42.6-9.9 61.9A45.2 45.2 0 0 0 85.2 467c25.3 2 49-15.4 62-45.6 1-2.2 1.1-2.3 1.9-2.3l5 .3a49.4 49.4 0 0 0 44.2-19.5 58.7 58.7 0 0 0 9-26.8c.3-3.1.3-3.2 1-3.3 1.2-.3 1.4-1.3 1-7a165 165 0 0 1-.6-8.4l-.2-3.5 2.4-1c6-2.3 14.3-6.8 22-11.9l4.5-2.8a72 72 0 0 1-24.6 17.2 149.7 149.7 0 0 0 1.3 12.9l.4 2.2 1.3.7c1.4.7 2.9.6 4.4-.2l1-.5 2.1 1.5c5.6 3.6 8.7 8.6 9.2 14.6v14.9c-.3 19.5-.3 18 .3 20.1a17 17 0 0 0 2.7 5.7c1 1.3 1 1.5.8 2.2-.4 1.3-1.8 8.9-2.6 13.4-4.5 27.4 9.1 46 35.2 48.3 7.8.6 18-.6 23.4-2.9 28-11.9 48-34 60.7-67.2 6.3-16.7 3.8-37.3-6-48.3a38.1 38.1 0 0 0-21.2-13.5c-6-1.6-14.6-1.8-19.9-.7l-.8.2-.2-1.6a45.5 45.5 0 0 0-14-25.9c-1-.9-1-1-.9-2.1.3-3-2.5-6.4-6.4-7.8-3.1-1.1-6.7-5.8-7.7-10-.5-1.8-.4-7.8 0-9.9 1.8-8.5-1.6-13.6-7.4-11.4-.2.1-.3-.3-.3-2.4 0-8.7-1.5-14.7-5.5-22.7 0 0 .4-.2 1-.2 7.4 0 11-2.6 10-7.2-.2-1.5-.7-1.2 4-2a171.6 171.6 0 0 0 61.3-21l2.4-1.4 1.3 1c3 2.8 3.7 3.3 7 5.3a19 19 0 0 0 16 2.8l1.2-.4 2.2 2c13.6 12.4 22 15.3 25.5 8.9a16 16 0 0 0 1.7-6.4c.2-2.2.3-2.3 1.4-4 3.5-5.4 3-10.1-1.7-14.9l-1-1 .3-1.4c1.6-7.2-.8-14-5.7-15.9a15.4 15.4 0 0 0-11.8.9l-.5-1.3-1-2-1-1.4c-.3-.5-.8-1-2.7-2.2l-1-.6v-4c-.2-4.5-.8-7.3-2.2-10l-.8-1.7 1.1-1.1c9.6-10.5 10-17.9 1.1-24-3-2-3.8-2.3-6.9-2.3-4.9 0-7.4 2.1-8.7 7.3-1 3.8-3.6 5.7-8.2 6-8.7.8-12.6 4.2-13.5 11.9l-.1 1.4-3 .1c-14.2.7-29 3.4-48.3 8.7l-15.9 4.6c-.2.1 1-1.3 2.9-3.1 7-7.1 12.4-13.8 15-18.3l.7-1.3h1.9c14.2 0 23.3-12 26.5-35 5-35.4-2.5-55.8-21.7-59.2-3.2-.5-10.9-.4-13.6.3-.4 0-.6-.1-1.1-1.2-2.4-4.8-6.7-10-11.4-13.6-1.2-.8-2-1.6-1.8-1.6a490.5 490.5 0 0 1 58 7.3c10.2 2 12.3 1 5.6-2.5-3.3-1.8-40.6-8.3-60-10.5a339.1 339.1 0 0 0-66-1.4l-1 .1 2.5-2.4c17.6-16.8 23.3-31.6 18.2-47.4-1.7-5.2-3.8-8-5-6.5m35.6 62.5c4 1 17 13.2 20.4 19.1l1 1.8-1.6 1.6c-4 4.2-6.1 8.3-6.7 13.3l-.1 1.2 1 .3c1 .3 1.2.3 1.7-1 6.6-17.8 28.9-18.5 37-1.2 3.2 6.8 4.4 15 4.2 28.8-.3 25.1-6.3 38.3-18.9 41.7-1.9.5-1.8.5-1.4-.7 9.3-26.4 2.4-44-19.8-50.5-2.7-.8-2.9-.8-2.9 0l-.4 1.3-.5 1 2.7 1.3c19.7 10.4 24.2 25.7 13.8 47a96.3 96.3 0 0 1-48.8 44 164 164 0 0 1-117 .4 125 125 0 0 1-19.5-9.7 36.3 36.3 0 0 1 2-55.7l1.1-.8-1.2-1.3-1.2-1.3-1 .6A35.8 35.8 0 0 0 84 196l1.4 2.1-2.4-.8C60.7 189.6 50.2 166 56.1 137c3.4-16.4 11.7-26 22.6-26.7 6.5-.3 12.3 4.2 15.8 12.2.8 1.6.9 1.7 1.5 1.7 1.4 0 1.4-.1 1.1-2.8-1-8.3-4-12.3-11-14.7-.6-.2 0-1.6 2.2-6.2a78.3 78.3 0 0 1 16.5-21.4l2.4-2.3 6.4-1.4a624.3 624.3 0 0 1 137.9-12.7m-42 3.3c-7.3.9-13.3 5.2-14.9 11-.7 2.5 1.5 2 3.3-.9 8-12.3 31.8-7.8 44 8.4A38.8 38.8 0 0 1 247 125c-2 4.4-.1 5.7 2.5 1.8 7.3-11 6.5-30.5-1.7-42.7a44.4 44.4 0 0 0-38.3-18m-66.7 10A34.3 34.3 0 0 0 123 87c-17 16.8-18.5 41.6-3.6 57 2.1 2 2.3 2.2 3 2.2 1-.1 1.2-1.2.3-2.4a41.4 41.4 0 0 1-5.2-40c7.6-20.4 30.8-30.6 43.4-19 1.6 1.5 2.1 1.8 3 1.8 3.2 0-1.7-6-7.4-8.8a25 25 0 0 0-13.7-1.5m77.2 29.5a20.8 20.8 0 0 0-13.7 14.6c-1.3 4.3 1.8 5.6 4.9 2 7.5-8.7 14.6-10.9 19.8-6.1 4.7 4.3 7.4 1.5 4.5-4.5-2.4-5-10-8-15.5-6m-69.5 10.8a19 19 0 0 0-15 10.5c-2.3 4.7 1.8 7.9 5.4 4.2 7.3-7.2 16.2-7.4 24.4-.5 4.5 3.8 8 2.1 5.1-2.4-5.2-8.4-12.8-12.9-19.9-11.8m38.6 10.3c-4.5 1.2-8.2 6-8.2 10.6 0 3.2 4.3 2.6 4.5-.6.4-5.5 7-8.1 11-4.3 2.7 2.4 2.2 7.4-.7 9.5-2 1.4-2.7 1.5-5.7.6-2-.5-3 .8-2.2 2.7 1.5 3 8.6 2 12.3-1.9 8-8 .2-19.5-11-16.6m41.3 15c-.6.3-.5 1.5.3 2.8 1.1 2 .8 4-1 6-2 2.4-10.2 6.9-17 9.3-15.2 5.6-45.8 6-58.8.9-2.2-1-2.2-1-2.5-4.2-.3-2.6-.4-3-1-3.6-1-.9-2.6.1-2.6 1.7 0 3.8-2.5 7.3-6.7 9.4-5 2.5-6.3 4.9-2.9 5.2l1.4.2 4-2.2 3.9-2.2h1.7c2.6 0 3.5.5 7.3 4.3 6 6 11.4 13.5 20.4 28 3.9 6.3 6.8 9.5 10.2 11.3 14.8 7.7 30.8-3.2 32.7-22.3l.6-6.1c1.2-12.1 4.9-20.7 10.3-24.2 2.7-1.7 4.4-2.1 10-2.3 5.6-.1 7-.5 5.7-1.7-.9-.7-1.7-1-4-1.1a9 9 0 0 1-6.5-2.8c-1-1-2.8-4-2.8-4.8 0-.7-2-2-2.7-1.7M368 162.6c6.9 2.9 4.8 14.1-3.1 17-2.7 1-3 2.3-1 6.4a59.8 59.8 0 0 1 4.2 30.5l-.3 3.2.8 1.3.7 1.4 1.6-.1c2.2-.2 3.3-1.1 3.7-3.1 1.1-5.3 7.3-8.5 12.9-6.8 4.1 1.4 5.4 6.9 2.4 10.9-12.5 17-37.8 16.7-47.2-.7-.7-1.3-2.1-2-3-1.5l-.7.4v2.8l-.1 2.7-3.5 1.5a284 284 0 0 1-46.7 16c-4 .8-13 2.6-13.2 2.5l.3-2c2.4-14.3-1.6-30-10.2-40.8l-.9-1 1.4-.5a286.9 286.9 0 0 1 65.3-12.7c3.6 0 4.9-1.1 5.8-5.2 1.4-6 4.6-8.8 11-9.7 5.5-.8 10.8-4.4 10.8-7.5l1.6-2.2c2.2-2.8 5-3.8 7.4-2.8M205.8 182c10.7 2.2 12.5 7.5 6 17.5-4.2 6.2-11.5 9.6-17.5 8-6.2-1.6-14.4-10-14.4-14.8 0-6.8 15-13 26-10.7m141.8 13a16 16 0 0 0-6 2c-1.1 2.3 1.6 3.3 5.5 2 5.9-2 9.7-.9 11.7 3.2 1.1 2.2 2 2.8 2.7 1.8 1-1.2.2-3.2-2.1-5.7-2.8-3-6.9-4.2-11.8-3.3m-88.5 11a42.7 42.7 0 0 1 12.8 26.6c.5 4.5 0 14.8-1 18.5-.4 1.8-8.4 3.3-11.7 2.1-3.9-1.3-7.2-7-12.6-21.4l-1.6-4.3-1.7.5-2.2.4c-.6 0-.7 0-.6.5a89.6 89.6 0 0 0 10.4 27.4 76.6 76.6 0 0 1 12 33.8c-.7.6-12 4.9-17.6 6.7-38.8 12.7-76 12-116-2l-5-1.7 1.8-1.8a47 47 0 0 0 10.6-20.7c.4-2.1 6.5-2.8 13.4-1.5l2.9.5-.7-3.5-.7-3.5-2-.4a33.2 33.2 0 0 0-20.7 2l-3.3 2.6-2.8 2.1-1-.3c-1.7-.7-1.5-1.7.5-4 9.2-10.8 9.8-24.4 2-39.6l-1-1.7 17.6 3.1c17 3.2 17.7 3.3 25.2 3.9l3.4.2 3 3.2 8.4 8.6 5.4 5.4 6.7-7.5 8-9 1.4-1.5.7.5 2 1.8a1796.1 1796.1 0 0 0 10 9.4l1 1 .8-1.3 4.1-6.6 6.8-11c2.4-3.8 3.8-5.8 4-6 6.6-2 23-11.1 24.6-13.6.2-.4.4-.2 2.7 2m115.5 3.6c1.3 1.3 1.4 1.3 1.2 2.2-.4 2.2-3.4 4.2-4.6 3-.4-.4-.3-3.3.4-6.8l.2-.7.7.5a28 28 0 0 1 2 1.8m-260.3 10.2c6 .7 11.8 20 9.6 32.2-.8 4.2-2.4 8.6-3 8.3-1-.5-9-.4-12 0l-3 .5-3.7 3.6c-9.8 9.7-20 14.3-29 12.8L72 277l1.7 16.4c.4 3.4.5 5.7.5 6.6-1.3 11.3-7.9 18.4-17 18.3-4.1 0-5-.6-5-3.3 0-3.8 2.9-6.5 7.4-6.7 7.8-.5 8.3-6.4.4-6.2-8.3.3-12.1 5.7-10.9 15.3.8 6.3-9.8 6-12.7-.4-2.7-6-1-16.2 4-24 1.8-2.7 1.2-4-1.8-3.5-2.6.4-5.6 6.6-7 14.7-.8 5-2.2 5.6-3.2 1.4a44 44 0 0 1-.3-18.4c.8-3.3-.6-5-2.8-3.6-1.2.7-1.5 1.4-1.9 4.7-.9 7.5-.5 13.3 1 19 .9 2.8.3 3.6-2 3l-1.3-.5-1-2.3a35.3 35.3 0 0 1-2.5-23.2c.8-3.5.2-5-1.8-4.1-1.1.4-1.3.7-2 3.7a36.6 36.6 0 0 0 1.6 22.4c.2.2.3 1.5 0 2-.3 1.1-3.7.4-4.8-1A42.6 42.6 0 0 1 5 290.7c-1-8.4 2.7-18.8 8.5-24 10-9 21.6-10.8 34.6-5.2l2 .8 1.1-1 1.5-1.3c.4-.1.7.1-2.7-2.5l-2.9-2 .9-1.5a64.8 64.8 0 0 1 53.5-34.3h12.9m106.3 7.7l-4.6 8.3-.3.6-5-4.6-5-4.6a6185.6 6185.6 0 0 1 19.1-7.3l-4.2 7.6m172.5-.1c2.3 1.5 3.1 4.4 2.4 8-.3 1.6-.2 1.7-3.2-1.2a72.9 72.9 0 0 0-2.9-2.8c-.4-.2-.3-.4.8-1.8l1.6-2c.5-.9.4-.8 1.3-.2m-195.9 1c0 .3-11.2 12.2-11.4 12.2a88 88 0 0 1-9.5-10.4c2-.4 21-2 21-1.8m189 6.1c1.7.4 3.3 2 4.5 4.6 1 2.2.4 7.5-1.1 8.6-1.8 1.2-3.3.7-8.4-2.6-1.4-1-3.2-2-4-2.4-1.6-.8-1.7-1.1-1.7-3 0-2.4 7.4-6 10.7-5.2m-174.7 22.4c-12.9 2.4-17.4 19-7.3 27 8.3 7 21.8-1.8 21.8-14 0-8-7-14.4-14.5-13m5 4.4c6 2.1 7.8 11.6 3.1 17-4.6 5.2-13 4.8-16-.9-4.3-8.4 4.3-19.1 13-16.1m65.7 69c9.9 7.9 16.2 18.4 15.8 26.2v1.3l-2.2.8a91.3 91.3 0 0 0-22.4 13.8 132 132 0 0 0-4.5 3.4c-.3.3-1.2.6-2.5.9a38.3 38.3 0 0 0-26 19.7l-1.3 2v-8.9c.2-8.8.2-8.8-.4-10.5a36.2 36.2 0 0 0-11.5-15.3l-1.8-1.6 1.2-1.6a88.4 88.4 0 0 1 48.5-29.7c6-1.5 5.8-1.5 7.1-.4M118 343.5c.7 1.8.7 7.4 0 10.5-.5 2.6-.5 2.6-1.7 3.3-13 8.6-18.5 30.7-11 45.6.4.8.6 1.5.5 1.5a237.5 237.5 0 0 1-10-1.4v1c0 1.2-.1 1.2 2.6 1.6a31 31 0 0 1 21.5 15c1 1.6 1.2 1.8 1.6.7l.4-.8v-1.8c-.2-1-.3-2-.2-2.3v-.5l1.5.9a22.8 22.8 0 0 0 16.3 4c2-.4 2.2-1-1 4.7a94.6 94.6 0 0 1-15 19.8c-17 16.5-40.5 20.2-57.4 9-5.7-3.8-8.7-6.7-10.4-10.2-12-25.1-5.2-53.3 18.9-78.1a72.2 72.2 0 0 1 38.8-22.2c3.6-.7 4.4-.7 4.6-.3m33.2 16.1c13.5.5 29.6 3.3 46.4 8 5.1 1.5 4.6.8 3.8 6-4.4 26.4-18.6 39-44 39-12.6 0-25.5-4.1-31.4-10.2-9.5-9.8-9.9-21.2-1.1-34.7 1.5-2.3 1.4-2.3 2.2 0 1.7 5 2.6 13 1.6 15.7-.1.4-.1.4.2.1l1.4-.8c.9-.5 1-.7 1.4-2a59.7 59.7 0 0 0 2.6-21 175.6 175.6 0 0 1 17 0m167.3 1.8a36 36 0 0 1 30.3 24.8 47.4 47.4 0 0 1 2 16.4l-.2.9-.7-2c-4.6-13.9-15.7-17.5-34.5-11.3a103 103 0 0 0-41.2 29c-14.7 16.5-22.7 39.9-19.6 57.3l.2.8-.7-.5a37.5 37.5 0 0 1-15.1-35 105 105 0 0 1 27.5-56.3c18.6-19.1 35.3-26.9 52-24.1m-200.5.3h2.3c1.6-.2 1.5-.3 2.3 1.7l.6 1.5-2 3.1c-6.1 9-8 15.4-6.4 22.5 2 10.1 9.1 18.3 20.4 23.5a1781.3 1781.3 0 0 1 6.3 2.8l.6.2-1 .5c-2 1-7 .5-11.8-1.2a43.5 43.5 0 0 1-16.7-11.3 33 33 0 0 1-4-29.5c1.6-5 7-14.5 8.1-14.1l1.3.3m142.6 22a97.4 97.4 0 0 0-20 30.9l-1 2.6-.4-1.5c-3-10.1 8.8-28.7 21-33 1.9-.7 2-.6.4 1m73.7 7.6c4.1 1 9 4.3 10.6 7.1l.4.7-27.8 40.7-28.1 41a51 51 0 0 1-13.2 1.5h-3.6l28.3-43.9c33-51 30.8-47.6 31.2-47.6l2.2.5m-6.5-.1L299 436.7l-29 45.4h-1.5c-2.6-.2-9.5-2-10.2-2.9a2916 2916 0 0 1 46.9-81.2 57 57 0 0 1 8.7-3.7 54 54 0 0 1 13.8-3M300 401.6l-21.6 37.1-21 36v-1c-2.7-16.3 8.3-42.4 24.3-58.1 6.1-6 17.5-15 19-15.1l-.7 1m47.7 4.5c.7 2.7 1 4.7 1 8v2.8l-1.7 4.1c-11.4 28.3-30 49-52.7 58.4-1 .4-4.8 6 25.8-38.6l26.3-38.4.4 1 1 2.7"/><path fill="#009335" d="M256.5 204a93.7 93.7 0 0 1-24.5 13.6c-.3 0-1.7 2-4 5.9l-6.9 11a1162 1162 0 0 0-4 6.6l-.9 1.3-1-1a1174.7 1174.7 0 0 0-12-11.2l-.7-.5-1.4 1.5-8 9-6.7 7.6-5.4-5.5-8.4-8.6-3-3.2-3.4-.2c-7.5-.6-8.1-.7-25.2-3.9l-17.5-3.1.8 1.7c8 15.2 7.3 28.8-2 39.5-2 2.4-2 3.4-.4 4l1 .4 2.8-2.1 3.3-2.7a33.2 33.2 0 0 1 20.7-2l2 .5.7 3.5.7 3.5-2.9-.5c-7-1.3-13-.6-13.4 1.5a47 47 0 0 1-10.6 20.7l-1.8 1.8 5 1.8a173.8 173.8 0 0 0 133.5-4.8 76.6 76.6 0 0 0-12-33.8c-3.2-4-7.9-16.6-10.3-27.4 0-.4 0-.5.6-.5l2.2-.4 1.7-.5 1.6 4.3c5.4 14.4 8.7 20.1 12.6 21.4 3.3 1.2 11.3-.3 11.7-2 1-3.8 1.5-14 1-18.6a42.5 42.5 0 0 0-12.8-26.7c-2.3-2.2-2.5-2.4-2.7-2m-41.1 19.5l-9.6 3.7 4.9 4.6 5 4.6.3-.6a1798.6 1798.6 0 0 1 8.8-15.9l-9.4 3.6m-29 5.7l-10 1a88 88 0 0 0 9.4 10.4c.2 0 11.4-12 11.4-12.2 0-.2-.3-.2-10.8.8m31 28.3c14 4.4 10 26.9-5 28.8-10.6 1.3-17.6-12.3-11.3-22 4-6.1 10.2-8.7 16.3-6.8"/><path fill="#9e8064" d="M220.2 63h.8-1m-6.5.3h1.2c.4 0 .1-.1-.6-.1h-.6m-5.3.3h1c.4 0 .1-.1-.5-.1h-.5m-4.9.3h.6-.6m-3.7.3h1c.2-.1 0-.1-.6-.1h-.4m-3.6.3h.8l-.4-.1h-.4m19 2h1c.1-.1 0-.2-.5-.2-.4 0-.6 0-.4.2m-3.5 3.2h1.3-1.2m-13.7 2l-1 1 1-1c.6-.4 1-.9 1-1l-1 1m67 2.2l2 2a26.6 26.6 0 0 0-4-4l2 2m-118.1 2.3h.8-.8m-.3 4.2h.4-.4m2.5 0h.4-.4m137.3 5.4h1.2l-.6-.1h-.6m-31.8 22.8v-1 1m-188.4 8l-.7.7.8-.7c.7-.7.9-.8.7-.8l-.8.7m242.1 1.3c0 .5 0 .7.1.5v-.9.4m-193.8 4c0 .6 0 .8.1.5v-1 .5m77.7 5c.2.1.6.1.8 0h-.8m-57.8 3.6c0 .6 0 .8.1.5v-1 .5m173.6 1.4c0 .6 0 .8.1.5v-1 .5m-117.5-.5h1l-.5-.1h-.5m5 1.4l.7.7.7.7-.7-.7c-.6-.7-.8-.9-.8-.7m-58.8.8h.8l-.4-.1h-.4m66.3 3.6c0 .7 0 1 .1.7v-1.3.6m-18 .7v.4c.2-.2.2-.5 0-.8v.4m-65.5 7.6l1.4 1.3-1.2-1.3-1.3-1.3 1.1 1.3m172.1.6c0 .8 0 1.2.1.7v-1.5.8m-60.8 1.8v-.4.4m60.7 1c0 .7 0 1 .1.6v-1.3.7m-237.6 1c0 .4 0 .5.1.3s.1-.6 0-.8v.4m33 1.1l-1.3 1.4 1.3-1.3 1.3-1.4-1.4 1.3m83.3 14h.7l-.4-.1h-.4m20 0h.5-.6m181.5 5c0 1 0 1.3.1.8V168v1m-295 5.6v1.4a25.4 25.4 0 0 0 0-1.4m6.2.7c0 .5 0 .7.1.4v-.8.4M220 183v.4c.1-.2.1-.6 0-.8v.4m46.6 5l-.7.7.8-.7c.7-.6.8-.8.6-.8l-.7.8m64.7 2.1c.2.1.6.1.8 0h-.8m36.8 14v.5c.1-.2.1-.6 0-.8v.4m6.9 6l.9.7-.7-.8a5 5 0 0 0-.9-.8l.7.8m-7 3.6c0 .6.1.8.2.6v-1c0-.4-.1-.1-.1.4m-265.6 6h.4-.4m9.7 0h.6-.5m226.5 4.6v2.7c.1 0 .2-1.4.1-3v-2.7l-.1 3m-154-1.8h.5-.5m202.6 3.5l-.8.9.9-.8c.8-.8 1-1 .8-1l-.9 1m-3 8.3h1l-.5-.1h-.6m8.7.5l.8.7.7.7-.7-.8c-.6-.7-.8-.8-.8-.6m-5.7 13.3h.4-.4m-356 10.3h1l-.5-.1h-.4m3.8 0c.2.1.6.1.8 0h-.8m78.7 1.5h2.6l-1.4-.1H114m-39.5 17.5h.6-.6M4.7 288c0 1 0 1.4.1.9V287v1m7.9 5.1v-1 1m10.2 0v-.7.6m0 4.8v.4c.1-.2.1-.6 0-.8v.4m34 20.6h.6-.6m228.3 14.4l.8.7.7.7-.7-.7c-.6-.7-.8-.9-.8-.7m-172 11A72.2 72.2 0 0 0 74.5 366c-24 24.8-30.7 53-18.8 78.1 1.7 3.5 4.7 6.4 10.4 10.2 17 11.2 40.4 7.5 57.4-9l2.8-2.7a94.6 94.6 0 0 0 12.3-17.1c3-5.7 3-5.1 1-4.8-5.5.9-10.9-.4-16.4-4l-1.4-.8-.1.5c0 .4 0 1.4.2 2.3v1.8a2 2 0 0 0-.4.8c-.4 1-.7 1-1.6-.7a31 31 0 0 0-21.5-15c-2.7-.4-2.6-.4-2.6-1.5v-1a497 497 0 0 1 10 1.3c.1 0-.1-.7-.5-1.5-7.5-14.9-2-37 11-45.6 1.2-.7 1.2-.7 1.7-3.3.7-3 .7-8.7 0-10.5-.2-.4-1-.4-4.6.3M231 355.6l-1 1 1-1c1-.8 1.1-1 1-1l-1 1m-88 3.8h.4-.5m-7.3.3h1c.3-.1 0-.1-.5-.1h-.5m14.6 0h.8-.6m4.4.3h.8l-.4-.1h-.4m-20.5 3.4v1.6a36.6 36.6 0 0 0 0-1.6m173.6-2c-13.3 1.4-26.6 9.3-41.3 24.4A105 105 0 0 0 239 442a37.5 37.5 0 0 0 15.1 35l.7.5-.2-.8c-3.1-17.4 4.9-40.8 19.6-57.3l2-2.3a103 103 0 0 1 39.2-26.7c18.8-6.2 29.9-2.6 34.5 11.2l.7 2 .2-.8c.3-1.5-.1-8-.6-11a38.5 38.5 0 0 0-13.3-22.7 44 44 0 0 0-29-7.9m-179 15.8v-.4.4m0 3.2v-.7.7m132.5 2.4l-.3.6c-.3.4-.3.3.2 0 .7-.7.7-.7.3-.7-.2 0-.3 0-.2.1m-21.8 1c0 .6 0 .8.1.5v-1 .6m-133 2.8c0 1.3 0 1.8.1 1v-2.3 1.3m140.8.4l-1 1 1-1c1-.8 1.2-1 1-1l-1 1m83 6l-29.7 45.7-28.3 43.8h3.6a51 51 0 0 0 13.2-1.5c.1 0 12.8-18.5 28-40.9l27.9-40.7-.4-.7c-1.9-3.4-9-7.6-12.8-7.6-.2 0-.9.9-1.6 2m-5.6-1.4a75 75 0 0 0-19.6 6.5c-1.8 2-47.3 80.9-47 81.2.8.9 7.7 2.7 10.3 2.8h1.5l28.9-45.3 28.8-45.4c0-.2-.8-.1-2.9.2m-27.7 11.2a96.7 96.7 0 0 0-35.5 43.2c-3.7 9-5.6 20.7-4.5 27.8l.2 1 21-36 22.1-38.2-3.3 2.2m22.8 38c-30.6 44.6-26.9 39-25.8 38.6 22.7-9.5 41.3-30.1 52.7-58.4l1.6-4.1V414c0-4.1-.6-8-1.8-10.6l-.4-1-26.3 38.4m-81.3-29.5c0 .4 0 .6.1.4v-.8l-.1.4m-86.1 1.5h.4-.4"/><path fill="#fd2016" d="M197 181.7c-7.1 1-15 5-16.6 8.5-2.8 6 8.4 17.7 17 17.7 10.1 0 21.4-14 17.3-21.3-2-3.5-10.6-6-17.6-4.9"/><path fill="#ffc58f" d="M227.1 62.9c-42.4.9-79.8 5-114.5 12.9l-5.6 1.3-2 2a75.5 75.5 0 0 0-18.4 25.4c-.9 2.1-1 2 1.3 3 5.7 2.4 8 5.8 9 12.8l.5 3c.2.7.1.8-.8 1-1.1.4-1.1.4-2.4-2.3-9-18.3-28.3-14.3-35.9 7.5-8.2 23.4-2.6 50 13 61.5a51 51 0 0 0 13.8 7l-1.2-2c-12.3-18.3-7.6-39.8 11.5-52.2l1-.6.6.7 1.3 1.4.6.6-1.8 1.6a35.7 35.7 0 0 0-7.6 47.4c5.1 7.3 7.7 9.2 19.7 14.6a165.2 165.2 0 0 0 109.3 7.1 111 111 0 0 0 43-23.5c7-6 15.1-16.6 19.2-25 10.8-21.3 6-37.5-14-47.4l-2.2-1.2.4-1.1c.3-.6.5-1.3.5-1.6 0-.5.2-.5 3.2.4 21.6 6.6 28.1 22 20.4 47.7-1.2 4-1.2 3.9.7 3.3 12.7-3.4 18.7-17.4 18.7-43.8 0-21-4.3-32.2-14.2-37a19.7 19.7 0 0 0-27.3 12.6c0 .4-.2.6-.5.5a3 3 0 0 0-1.2-.3l-.8-.2.2-1.5c.4-4.7 2.7-9.2 6.7-13.3l1.5-1.5-.4-.8A62.6 62.6 0 0 0 254 64.3l-2-1.4h-24.9m-6.8 3.6a49.8 49.8 0 0 1 26.6 16.2c7.6 8.3 10 28.9 4.8 40.5-3.2 7-7.7 8.7-4.7 1.7a38.1 38.1 0 0 0-3.7-38C231.3 69 207 63.3 198.1 76c-2.8 4.2-5 3.3-2.6-1.2 3.9-7.4 12.5-10.4 24.8-8.4m-67.6 9.9c5.3 1.2 12 6.4 12.1 9.2 0 1.8-1.4 1.7-3.6-.4-12.3-11.7-35-2.5-43 17.3-5.7 14-4 30.3 4 40.4 2.6 3.3.6 4.8-2.3 1.7a37.3 37.3 0 0 1-10-18.4c-3.4-16 4.2-33.5 19.2-44.7a33 33 0 0 1 23.6-5.1m74.4 29.2c6.3 1.2 11.2 7.5 9.2 11.7-1 2-2.3 1.8-5-.6-5.6-5-13.4-2.7-20.1 5.8-1.7 2.2-4.3 2.7-5.1 1-1.3-2.8 3-11 7.5-14.4 4.5-3.5 8.3-4.5 13.5-3.5m-72.1 11a23.4 23.4 0 0 1 7.4 2.8c.7 0 5.8 5.4 7.4 7.9 3.7 5.6.6 8-4.7 3.5-8.1-7-16-6.7-24.3.6-4.4 4-8 .2-4.9-5.1 3.9-7 11.8-11 19-9.6m41.5 10.2c8.5 2.6 9.5 13.4 1.7 18.4-3.6 2.3-9.2 2.5-10.3.3-1-2.3.3-3.8 2.6-2.9 6.9 2.6 11-7.7 4.4-11a6.2 6.2 0 0 0-9.2 5c-.3 3.6-4.7 4.3-4.7.6a12 12 0 0 1 3.4-7.7c2-2 3.5-2.6 7.3-3.3 1-.1 3.3.2 4.8.6m35.6 15.4c.5.4 1.2 1.5 1.7 2.6 2 4.2 5 6.2 9.5 6.2 3 0 4.6 1.5 2.7 2.4-.7.4-1.6.5-5.7.6-6.1.2-7.5.6-10.3 2.7-5.4 4-8.6 13-9.8 26.9-.8 10.5-2.6 14.9-8 20.6-8.7 9-20.9 9.5-29.4 1.2a44.4 44.4 0 0 1-7.6-10.7c-14.3-22.9-23-32-28-29.2l-4 2.1c-3.8 2.1-6 2.4-7 1-.4-.8 1.6-2.8 4.4-4.2a13.7 13.7 0 0 0 5.5-4.3c.4 0 1.6-3.5 1.7-5 .5-4.1 3.2-3.4 3.7 1 .4 4 .3 3.8 3.3 4.9a77 77 0 0 0 26.2 3c19.8 0 29.4-2 41.3-8.4 8.5-4.7 10.4-7.2 8.3-11.2-1.3-2.4-.3-3.8 1.5-2.2m133 20.1c-2.6.6-4.6 2.7-6.4 6.4-1.7 3.6-5 5.6-10.6 6.4-6 1-9.3 3.8-10.5 9-1.1 4.8-2.2 5.8-6.8 6-11.7.3-31.8 3.7-49 8.2-6 1.5-16.5 4.5-16.7 4.8l1 1.4a52 52 0 0 1 9.7 42c0 .7 13.8-2.3 22.5-4.7a303 303 0 0 0 37.5-13.6l3-1.3v-5.5l1-.5.9-.5 1.2 1c.6.6 1.2 1.2 1.2 1.4 0 1.3 4.9 6.9 7.5 8.6 12.2 8 28.8 4.6 39.2-8 1.6-2 2.2-6.2 1.2-8.3-3.1-5.9-15.1-3-16.2 4-.3 2-1.9 3.2-4.1 3.1H369l-.7-1.3-.7-1.4.2-2.3a62 62 0 0 0-4-31c-2-4.3-1.8-5.8.8-6.6 2.6-.9 5.7-3.8 6.7-6.4 2.2-5.8-1.4-12-6.4-10.9M354.2 195c4.6 1.2 9.2 6.7 7.5 9.1-.7 1-2 .1-2.8-1.8-1.5-4-5.8-5.2-12-3-3 1-5.3.4-5.3-1.4 0-1.2.1-1.3 2-2 4-1.2 8-1.6 10.6-1m17.2 15.9c-.5 3.4-.5 3.5 0 4 1 1 3.8-.8 4.4-2.8.2-1-.3-1.8-2.7-3.8l-1.2-1-.5 3.6m-269.9 9a63.3 63.3 0 0 0-51.1 30.4c-2 3-3.2 5-3.1 5.2 0 .2 5 4 5.5 4.1.4.2.3.5-.3.8-.3.1-1 .6-1.6 1.2l-1 .9-2.4-1a31 31 0 0 0-23.8-1.2c-15.4 6.1-22.4 22.2-17 38.7 2.3 6.5 4.4 9.5 7 9.8 2.2.2 2.3-.5.8-4.9a28.7 28.7 0 0 1-1.8-10.7c0-9.2 2.4-15.3 4.9-12.6.7.7.7.8 0 4.4a37 37 0 0 0 1 19c1.9 5.2 2.7 6.3 4.8 6.3 1.5 0 1.6-.5.9-3.3-1.8-6.5-1.8-20.6-.1-22.5 2.4-2.7 5-1 4 2.6a42.6 42.6 0 0 0 .7 20.3c.7 2 2 .6 2.5-2.3 1-6.2 2.8-11.2 5.2-14.4l1-1.2h1.5c2.8 0 3.2 1 1.5 3.5-5.3 8-7 18.7-3.7 24.8 2.2 4.2 8.3 5.6 11.3 2.6l.8-.8V315c0-5.2.3-6.4 1.8-8.7 2.7-4 11.9-5.6 14.4-2.4 1.8 2.2-1.1 4.5-5.7 4.5-4.7 0-8.5 4.5-7 8.3.5 1.3 1 1.5 4 1.6 9 .4 15.7-6 17.3-16.3.4-3 .4-3.3.1-5.9a537.1 537.1 0 0 1-1.8-16.6c-.4-3-.7-2.6 2.2-2.3A32 32 0 0 0 97 269c2.2-1.8 7.2-6.5 8.1-7.8.9-1 8.8-1.9 13.5-1.4 3 .4 2.8.6 4-3 3.9-12 .8-29.2-6.5-36.3l-.8-.7-5.7-.1h-8m289.6 8.6c-.6 1-1.4 1.8-1.7 2l-.5.5 3 2.9c3.4 3.2 3.2 3.2 3.6.8.5-3.4-.4-5.6-2.8-7.4-.4-.3-.6-.1-1.6 1.2m-11.1 7.6c-4 2-4.7 2.6-4.4 4.6l.1 1.2 2.2 1.2 4.4 2.7c5.9 3.8 8.2 3.2 8.9-2.4.2-1.9-.3-3.8-1.4-5.6-2.2-3.7-5-4.1-9.8-1.7m-102.2 94.3a94 94 0 0 0-44.6 23.2 61.7 61.7 0 0 0-7.4 8.6l2.2 2c8.4 7.6 12.4 15 11.5 21.3-.2.8-.2 4-.2 7.1v5.6l1.3-2.1a38.1 38.1 0 0 1 25.4-19.3l2.8-.8 8.9-6.8a86.7 86.7 0 0 1 17.5-10.2l3-1.3-.2-2a31.3 31.3 0 0 0-10.5-20.4 39.4 39.4 0 0 0-6.6-5.6l-3.1.7m-142.2 29.4l-1.5.1.1 2.3c.2 4.8-.5 10.1-2 16.2-.9 3.7-1 4-2.7 4.9l-1 .6V382l.3-2.6c.3-2.7-1.9-13.3-2.8-13.3a45 45 0 0 0-6 11 22.9 22.9 0 0 0 6 25.4c6 6 19 10.3 31.2 10.3 25.5 0 40-13.3 44-40.3.7-3.8 1.1-3.3-4-4.7a196.6 196.6 0 0 0-61.6-8M114.2 386v-.7.7"/></g></svg>